<?xml version="1.0" encoding="utf-8"?>
<!-- Generator: Adobe Illustrator 19.1.0, SVG Export Plug-In . SVG Version: 6.00 Build 0)  -->
<svg version="1.1" id="Calque_1" xmlns="http://www.w3.org/2000/svg" xmlns:xlink="http://www.w3.org/1999/xlink" x="0px" y="0px"
	 viewBox="-646.5 392.3 95.6 56" style="enable-background:new -646.5 392.3 95.6 56;" xml:space="preserve">
<style type="text/css">
	.st0{fill:url(#SVGID_1_);}
	.st1{fill:url(#SVGID_2_);}
	.st2{fill:#582348;}
</style>
<g>
	
		<linearGradient id="SVGID_1_" gradientUnits="userSpaceOnUse" x1="-637.2501" y1="-332.6878" x2="-637.2501" y2="-364.3876" gradientTransform="matrix(1 0 0 1 0 776.4598)">
		<stop  offset="0" style="stop-color:#EDEDED"/>
		<stop  offset="1" style="stop-color:#FFFFFF;stop-opacity:0"/>
	</linearGradient>
	<path class="st0" d="M-636.6,420.2c0-3.5,0.5-6.8,1.3-10h-11.2c1.1,13.9,8.1,26,18.4,34C-633.4,437.7-636.6,429.2-636.6,420.2z"/>
	
		<linearGradient id="SVGID_2_" gradientUnits="userSpaceOnUse" x1="-559.7501" y1="-333.1998" x2="-559.75" y2="-364.4169" gradientTransform="matrix(1 0 0 1 0 776.4598)">
		<stop  offset="0" style="stop-color:#EDEDED"/>
		<stop  offset="1" style="stop-color:#FFFFFF;stop-opacity:0"/>
	</linearGradient>
	<path class="st1" d="M-561.9,410.2c0.9,3.2,1.3,6.5,1.3,10c0,8.9-3,17-8.1,23.5c10-8,16.7-20,17.8-33.5H-561.9L-561.9,410.2z"/>
</g>
<g id="XMLID_3848_">
	<path id="XMLID_3849_" class="st2" d="M-598.7,392.3c-15.4,0-28,12.5-28,28s12.5,28,28,28c15.4,0,28-12.5,28-28
		S-583.3,392.3-598.7,392.3z M-597.7,435.3c-1,0-2.1-0.1-3-0.3c-1.8,5.3-4.1,7.1-7.5,7.1c-2.1,0-3.7-1.1-3.6-2.7
		c0.1-1.2,0.9-2.1,2-2.1c0.8,0,1.4,0.4,1.9,1.2c0.3,0.6,0.8,0.8,1.3,0.8c1,0.1,1.6-0.4,2.4-4.6l3.7-19.6l0.5-2.4
		c0.3-1,0.5-1.9,0.8-2.7c0.1,0,0.2,0,0.3,0c1.2,0,2.3,0.2,3.3,0.5c-0.2,0.7-0.3,1.4-0.5,2.2l-0.5,2.5l-2.9,14.5
		c-0.2,0.8-0.3,1.6-0.5,2.3c0.7,0.1,1.4,0.2,2.2,0.2c6.2,0,9.4-4.5,10.1-5.6h3.6C-586,431.4-591.1,435.3-597.7,435.3z M-585.4,405.1
		c-1.1,0-1.8-0.7-2.3-2.1c-0.4-1.1-1-1.6-2-1.6c-1.5,0-2.8,1.2-4,3.7c5,1.4,8.2,5.1,9.6,8.1h-3.6c-1-1.8-4.4-5.8-10.1-5.8
		c-7,0-12.2,5.5-12.2,12.4c0,3.5,1.3,6.7,3.5,8.9l-0.7,3.5c-3.8-2.8-6.2-7.3-6.2-12.4c0-8.5,6.6-15.4,15.5-15.4c0.4,0,0.7,0,1.1,0
		c2.1-3.3,5.1-5.6,8.7-5.6c2.9,0,4.9,1.8,4.8,4C-583.2,404.2-584.1,405.1-585.4,405.1z"/>
</g>
</svg>
